<mxfile host="Electron" modified="2024-07-08T13:13:10.849Z" agent="Mozilla/5.0 (Windows NT 10.0; Win64; x64) AppleWebKit/537.36 (KHTML, like Gecko) draw.io/24.6.4 Chrome/124.0.6367.207 Electron/30.0.6 Safari/537.36" etag="hrd4Q17pGvb_tKjg_OFw" version="24.6.4" type="device">
  <diagram name="Page-1" id="e56a1550-8fbb-45ad-956c-1786394a9013">
    <mxGraphModel dx="1098" dy="820" grid="1" gridSize="10" guides="1" tooltips="1" connect="1" arrows="1" fold="1" page="1" pageScale="1" pageWidth="1100" pageHeight="850" background="none" math="0" shadow="0">
      <root>
        <mxCell id="0" />
        <mxCell id="1" parent="0" />
        <mxCell id="u2C4JE_ePyd39WpZM0g2-27" value="user" style="swimlane;fontStyle=0;childLayout=stackLayout;horizontal=1;startSize=26;horizontalStack=0;resizeParent=1;resizeParentMax=0;resizeLast=0;collapsible=1;marginBottom=0;align=center;fontSize=14;" parent="1" vertex="1">
          <mxGeometry x="380" y="310" width="160" height="146" as="geometry" />
        </mxCell>
        <mxCell id="u2C4JE_ePyd39WpZM0g2-28" value="id" style="text;strokeColor=none;fillColor=none;spacingLeft=4;spacingRight=4;overflow=hidden;rotatable=0;points=[[0,0.5],[1,0.5]];portConstraint=eastwest;fontSize=12;whiteSpace=wrap;html=1;" parent="u2C4JE_ePyd39WpZM0g2-27" vertex="1">
          <mxGeometry y="26" width="160" height="30" as="geometry" />
        </mxCell>
        <mxCell id="u2C4JE_ePyd39WpZM0g2-29" value="email" style="text;strokeColor=none;fillColor=none;spacingLeft=4;spacingRight=4;overflow=hidden;rotatable=0;points=[[0,0.5],[1,0.5]];portConstraint=eastwest;fontSize=12;whiteSpace=wrap;html=1;" parent="u2C4JE_ePyd39WpZM0g2-27" vertex="1">
          <mxGeometry y="56" width="160" height="30" as="geometry" />
        </mxCell>
        <mxCell id="u2C4JE_ePyd39WpZM0g2-30" value="password" style="text;strokeColor=none;fillColor=none;spacingLeft=4;spacingRight=4;overflow=hidden;rotatable=0;points=[[0,0.5],[1,0.5]];portConstraint=eastwest;fontSize=12;whiteSpace=wrap;html=1;" parent="u2C4JE_ePyd39WpZM0g2-27" vertex="1">
          <mxGeometry y="86" width="160" height="30" as="geometry" />
        </mxCell>
        <mxCell id="u2C4JE_ePyd39WpZM0g2-32" value="role STRING" style="text;strokeColor=none;fillColor=none;spacingLeft=4;spacingRight=4;overflow=hidden;rotatable=0;points=[[0,0.5],[1,0.5]];portConstraint=eastwest;fontSize=12;whiteSpace=wrap;html=1;" parent="u2C4JE_ePyd39WpZM0g2-27" vertex="1">
          <mxGeometry y="116" width="160" height="30" as="geometry" />
        </mxCell>
        <mxCell id="u2C4JE_ePyd39WpZM0g2-33" value="basket" style="swimlane;fontStyle=0;childLayout=stackLayout;horizontal=1;startSize=26;horizontalStack=0;resizeParent=1;resizeParentMax=0;resizeLast=0;collapsible=1;marginBottom=0;align=center;fontSize=14;" parent="1" vertex="1">
          <mxGeometry x="580" y="240" width="160" height="86" as="geometry" />
        </mxCell>
        <mxCell id="u2C4JE_ePyd39WpZM0g2-34" value="id" style="text;strokeColor=none;fillColor=none;spacingLeft=4;spacingRight=4;overflow=hidden;rotatable=0;points=[[0,0.5],[1,0.5]];portConstraint=eastwest;fontSize=12;whiteSpace=wrap;html=1;" parent="u2C4JE_ePyd39WpZM0g2-33" vertex="1">
          <mxGeometry y="26" width="160" height="30" as="geometry" />
        </mxCell>
        <mxCell id="u2C4JE_ePyd39WpZM0g2-35" value="user_id" style="text;strokeColor=none;fillColor=none;spacingLeft=4;spacingRight=4;overflow=hidden;rotatable=0;points=[[0,0.5],[1,0.5]];portConstraint=eastwest;fontSize=12;whiteSpace=wrap;html=1;" parent="u2C4JE_ePyd39WpZM0g2-33" vertex="1">
          <mxGeometry y="56" width="160" height="30" as="geometry" />
        </mxCell>
        <mxCell id="u2C4JE_ePyd39WpZM0g2-38" value="" style="edgeStyle=orthogonalEdgeStyle;fontSize=12;html=1;endArrow=ERmandOne;startArrow=ERmandOne;rounded=0;entryX=0.013;entryY=0.128;entryDx=0;entryDy=0;entryPerimeter=0;exitX=1;exitY=0.075;exitDx=0;exitDy=0;exitPerimeter=0;" parent="1" source="u2C4JE_ePyd39WpZM0g2-27" target="u2C4JE_ePyd39WpZM0g2-33" edge="1">
          <mxGeometry width="100" height="100" relative="1" as="geometry">
            <mxPoint x="420" y="463" as="sourcePoint" />
            <mxPoint x="520" y="363" as="targetPoint" />
          </mxGeometry>
        </mxCell>
        <mxCell id="u2C4JE_ePyd39WpZM0g2-39" value="Product" style="swimlane;fontStyle=0;childLayout=stackLayout;horizontal=1;startSize=26;horizontalStack=0;resizeParent=1;resizeParentMax=0;resizeLast=0;collapsible=1;marginBottom=0;align=center;fontSize=14;" parent="1" vertex="1">
          <mxGeometry x="980" y="260" width="160" height="266" as="geometry" />
        </mxCell>
        <mxCell id="u2C4JE_ePyd39WpZM0g2-40" value="id" style="text;strokeColor=none;fillColor=none;spacingLeft=4;spacingRight=4;overflow=hidden;rotatable=0;points=[[0,0.5],[1,0.5]];portConstraint=eastwest;fontSize=12;whiteSpace=wrap;html=1;" parent="u2C4JE_ePyd39WpZM0g2-39" vertex="1">
          <mxGeometry y="26" width="160" height="30" as="geometry" />
        </mxCell>
        <mxCell id="u2C4JE_ePyd39WpZM0g2-47" value="img" style="text;strokeColor=none;fillColor=none;spacingLeft=4;spacingRight=4;overflow=hidden;rotatable=0;points=[[0,0.5],[1,0.5]];portConstraint=eastwest;fontSize=12;whiteSpace=wrap;html=1;" parent="u2C4JE_ePyd39WpZM0g2-39" vertex="1">
          <mxGeometry y="56" width="160" height="30" as="geometry" />
        </mxCell>
        <mxCell id="u2C4JE_ePyd39WpZM0g2-41" value="name" style="text;strokeColor=none;fillColor=none;spacingLeft=4;spacingRight=4;overflow=hidden;rotatable=0;points=[[0,0.5],[1,0.5]];portConstraint=eastwest;fontSize=12;whiteSpace=wrap;html=1;" parent="u2C4JE_ePyd39WpZM0g2-39" vertex="1">
          <mxGeometry y="86" width="160" height="30" as="geometry" />
        </mxCell>
        <mxCell id="u2C4JE_ePyd39WpZM0g2-42" value="brandId" style="text;strokeColor=none;fillColor=none;spacingLeft=4;spacingRight=4;overflow=hidden;rotatable=0;points=[[0,0.5],[1,0.5]];portConstraint=eastwest;fontSize=12;whiteSpace=wrap;html=1;" parent="u2C4JE_ePyd39WpZM0g2-39" vertex="1">
          <mxGeometry y="116" width="160" height="30" as="geometry" />
        </mxCell>
        <mxCell id="u2C4JE_ePyd39WpZM0g2-57" value="CategoryId" style="text;strokeColor=none;fillColor=none;spacingLeft=4;spacingRight=4;overflow=hidden;rotatable=0;points=[[0,0.5],[1,0.5]];portConstraint=eastwest;fontSize=12;whiteSpace=wrap;html=1;" parent="u2C4JE_ePyd39WpZM0g2-39" vertex="1">
          <mxGeometry y="146" width="160" height="30" as="geometry" />
        </mxCell>
        <mxCell id="u2C4JE_ePyd39WpZM0g2-44" value="Availability" style="text;strokeColor=none;fillColor=none;spacingLeft=4;spacingRight=4;overflow=hidden;rotatable=0;points=[[0,0.5],[1,0.5]];portConstraint=eastwest;fontSize=12;whiteSpace=wrap;html=1;" parent="u2C4JE_ePyd39WpZM0g2-39" vertex="1">
          <mxGeometry y="176" width="160" height="30" as="geometry" />
        </mxCell>
        <mxCell id="u2C4JE_ePyd39WpZM0g2-46" value="Price" style="text;strokeColor=none;fillColor=none;spacingLeft=4;spacingRight=4;overflow=hidden;rotatable=0;points=[[0,0.5],[1,0.5]];portConstraint=eastwest;fontSize=12;whiteSpace=wrap;html=1;" parent="u2C4JE_ePyd39WpZM0g2-39" vertex="1">
          <mxGeometry y="206" width="160" height="30" as="geometry" />
        </mxCell>
        <mxCell id="u2C4JE_ePyd39WpZM0g2-80" value="rating" style="text;strokeColor=none;fillColor=none;spacingLeft=4;spacingRight=4;overflow=hidden;rotatable=0;points=[[0,0.5],[1,0.5]];portConstraint=eastwest;fontSize=12;whiteSpace=wrap;html=1;" parent="u2C4JE_ePyd39WpZM0g2-39" vertex="1">
          <mxGeometry y="236" width="160" height="30" as="geometry" />
        </mxCell>
        <mxCell id="u2C4JE_ePyd39WpZM0g2-48" value="Category" style="swimlane;fontStyle=0;childLayout=stackLayout;horizontal=1;startSize=26;horizontalStack=0;resizeParent=1;resizeParentMax=0;resizeLast=0;collapsible=1;marginBottom=0;align=center;fontSize=14;" parent="1" vertex="1">
          <mxGeometry x="820" y="630" width="160" height="86" as="geometry" />
        </mxCell>
        <mxCell id="u2C4JE_ePyd39WpZM0g2-61" value="id" style="text;strokeColor=none;fillColor=none;spacingLeft=4;spacingRight=4;overflow=hidden;rotatable=0;points=[[0,0.5],[1,0.5]];portConstraint=eastwest;fontSize=12;whiteSpace=wrap;html=1;" parent="u2C4JE_ePyd39WpZM0g2-48" vertex="1">
          <mxGeometry y="26" width="160" height="30" as="geometry" />
        </mxCell>
        <mxCell id="u2C4JE_ePyd39WpZM0g2-66" value="name" style="text;strokeColor=none;fillColor=none;spacingLeft=4;spacingRight=4;overflow=hidden;rotatable=0;points=[[0,0.5],[1,0.5]];portConstraint=eastwest;fontSize=12;whiteSpace=wrap;html=1;" parent="u2C4JE_ePyd39WpZM0g2-48" vertex="1">
          <mxGeometry y="56" width="160" height="30" as="geometry" />
        </mxCell>
        <mxCell id="u2C4JE_ePyd39WpZM0g2-52" value="brand" style="swimlane;fontStyle=0;childLayout=stackLayout;horizontal=1;startSize=26;horizontalStack=0;resizeParent=1;resizeParentMax=0;resizeLast=0;collapsible=1;marginBottom=0;align=center;fontSize=14;" parent="1" vertex="1">
          <mxGeometry x="1150" y="630" width="160" height="86" as="geometry" />
        </mxCell>
        <mxCell id="u2C4JE_ePyd39WpZM0g2-53" value="id" style="text;strokeColor=none;fillColor=none;spacingLeft=4;spacingRight=4;overflow=hidden;rotatable=0;points=[[0,0.5],[1,0.5]];portConstraint=eastwest;fontSize=12;whiteSpace=wrap;html=1;" parent="u2C4JE_ePyd39WpZM0g2-52" vertex="1">
          <mxGeometry y="26" width="160" height="30" as="geometry" />
        </mxCell>
        <mxCell id="u2C4JE_ePyd39WpZM0g2-54" value="name" style="text;strokeColor=none;fillColor=none;spacingLeft=4;spacingRight=4;overflow=hidden;rotatable=0;points=[[0,0.5],[1,0.5]];portConstraint=eastwest;fontSize=12;whiteSpace=wrap;html=1;" parent="u2C4JE_ePyd39WpZM0g2-52" vertex="1">
          <mxGeometry y="56" width="160" height="30" as="geometry" />
        </mxCell>
        <mxCell id="u2C4JE_ePyd39WpZM0g2-64" value="" style="edgeStyle=orthogonalEdgeStyle;fontSize=12;html=1;endArrow=ERoneToMany;rounded=0;entryX=0;entryY=0.5;entryDx=0;entryDy=0;exitX=0.5;exitY=0;exitDx=0;exitDy=0;" parent="1" source="u2C4JE_ePyd39WpZM0g2-48" target="u2C4JE_ePyd39WpZM0g2-57" edge="1">
          <mxGeometry width="100" height="100" relative="1" as="geometry">
            <mxPoint x="820" y="573" as="sourcePoint" />
            <mxPoint x="900" y="460" as="targetPoint" />
          </mxGeometry>
        </mxCell>
        <mxCell id="u2C4JE_ePyd39WpZM0g2-65" value="" style="edgeStyle=orthogonalEdgeStyle;fontSize=12;html=1;endArrow=ERoneToMany;rounded=0;exitX=0.5;exitY=0;exitDx=0;exitDy=0;entryX=1;entryY=0.5;entryDx=0;entryDy=0;" parent="1" source="u2C4JE_ePyd39WpZM0g2-52" target="u2C4JE_ePyd39WpZM0g2-57" edge="1">
          <mxGeometry width="100" height="100" relative="1" as="geometry">
            <mxPoint x="1140" y="600" as="sourcePoint" />
            <mxPoint x="1240" y="500" as="targetPoint" />
          </mxGeometry>
        </mxCell>
        <mxCell id="u2C4JE_ePyd39WpZM0g2-67" value="" style="edgeStyle=entityRelationEdgeStyle;fontSize=12;html=1;endArrow=ERmany;startArrow=ERmany;rounded=0;exitX=1.006;exitY=0.174;exitDx=0;exitDy=0;exitPerimeter=0;entryX=-0.006;entryY=0.14;entryDx=0;entryDy=0;entryPerimeter=0;" parent="1" source="u2C4JE_ePyd39WpZM0g2-48" target="u2C4JE_ePyd39WpZM0g2-52" edge="1">
          <mxGeometry width="100" height="100" relative="1" as="geometry">
            <mxPoint x="1000" y="660" as="sourcePoint" />
            <mxPoint x="1100" y="560" as="targetPoint" />
          </mxGeometry>
        </mxCell>
        <mxCell id="u2C4JE_ePyd39WpZM0g2-68" value="product_info" style="swimlane;fontStyle=0;childLayout=stackLayout;horizontal=1;startSize=26;horizontalStack=0;resizeParent=1;resizeParentMax=0;resizeLast=0;collapsible=1;marginBottom=0;align=center;fontSize=14;" parent="1" vertex="1">
          <mxGeometry x="1290" y="260" width="160" height="146" as="geometry" />
        </mxCell>
        <mxCell id="u2C4JE_ePyd39WpZM0g2-69" value="id" style="text;strokeColor=none;fillColor=none;spacingLeft=4;spacingRight=4;overflow=hidden;rotatable=0;points=[[0,0.5],[1,0.5]];portConstraint=eastwest;fontSize=12;whiteSpace=wrap;html=1;" parent="u2C4JE_ePyd39WpZM0g2-68" vertex="1">
          <mxGeometry y="26" width="160" height="30" as="geometry" />
        </mxCell>
        <mxCell id="u2C4JE_ePyd39WpZM0g2-70" value="product_Id" style="text;strokeColor=none;fillColor=none;spacingLeft=4;spacingRight=4;overflow=hidden;rotatable=0;points=[[0,0.5],[1,0.5]];portConstraint=eastwest;fontSize=12;whiteSpace=wrap;html=1;" parent="u2C4JE_ePyd39WpZM0g2-68" vertex="1">
          <mxGeometry y="56" width="160" height="30" as="geometry" />
        </mxCell>
        <mxCell id="u2C4JE_ePyd39WpZM0g2-71" value="title" style="text;strokeColor=none;fillColor=none;spacingLeft=4;spacingRight=4;overflow=hidden;rotatable=0;points=[[0,0.5],[1,0.5]];portConstraint=eastwest;fontSize=12;whiteSpace=wrap;html=1;" parent="u2C4JE_ePyd39WpZM0g2-68" vertex="1">
          <mxGeometry y="86" width="160" height="30" as="geometry" />
        </mxCell>
        <mxCell id="u2C4JE_ePyd39WpZM0g2-73" value="description" style="text;strokeColor=none;fillColor=none;spacingLeft=4;spacingRight=4;overflow=hidden;rotatable=0;points=[[0,0.5],[1,0.5]];portConstraint=eastwest;fontSize=12;whiteSpace=wrap;html=1;" parent="u2C4JE_ePyd39WpZM0g2-68" vertex="1">
          <mxGeometry y="116" width="160" height="30" as="geometry" />
        </mxCell>
        <mxCell id="u2C4JE_ePyd39WpZM0g2-72" value="" style="edgeStyle=entityRelationEdgeStyle;fontSize=12;html=1;endArrow=ERoneToMany;rounded=0;entryX=0.006;entryY=0.138;entryDx=0;entryDy=0;entryPerimeter=0;" parent="1" source="u2C4JE_ePyd39WpZM0g2-39" target="u2C4JE_ePyd39WpZM0g2-68" edge="1">
          <mxGeometry width="100" height="100" relative="1" as="geometry">
            <mxPoint x="1200" y="420" as="sourcePoint" />
            <mxPoint x="1300" y="320" as="targetPoint" />
          </mxGeometry>
        </mxCell>
        <mxCell id="u2C4JE_ePyd39WpZM0g2-74" value="basket_device" style="swimlane;fontStyle=0;childLayout=stackLayout;horizontal=1;startSize=26;horizontalStack=0;resizeParent=1;resizeParentMax=0;resizeLast=0;collapsible=1;marginBottom=0;align=center;fontSize=14;" parent="1" vertex="1">
          <mxGeometry x="800" y="170" width="160" height="116" as="geometry" />
        </mxCell>
        <mxCell id="u2C4JE_ePyd39WpZM0g2-75" value="id" style="text;strokeColor=none;fillColor=none;spacingLeft=4;spacingRight=4;overflow=hidden;rotatable=0;points=[[0,0.5],[1,0.5]];portConstraint=eastwest;fontSize=12;whiteSpace=wrap;html=1;" parent="u2C4JE_ePyd39WpZM0g2-74" vertex="1">
          <mxGeometry y="26" width="160" height="30" as="geometry" />
        </mxCell>
        <mxCell id="u2C4JE_ePyd39WpZM0g2-76" value="device_id" style="text;strokeColor=none;fillColor=none;spacingLeft=4;spacingRight=4;overflow=hidden;rotatable=0;points=[[0,0.5],[1,0.5]];portConstraint=eastwest;fontSize=12;whiteSpace=wrap;html=1;" parent="u2C4JE_ePyd39WpZM0g2-74" vertex="1">
          <mxGeometry y="56" width="160" height="30" as="geometry" />
        </mxCell>
        <mxCell id="u2C4JE_ePyd39WpZM0g2-77" value="basket_id" style="text;strokeColor=none;fillColor=none;spacingLeft=4;spacingRight=4;overflow=hidden;rotatable=0;points=[[0,0.5],[1,0.5]];portConstraint=eastwest;fontSize=12;whiteSpace=wrap;html=1;" parent="u2C4JE_ePyd39WpZM0g2-74" vertex="1">
          <mxGeometry y="86" width="160" height="30" as="geometry" />
        </mxCell>
        <mxCell id="u2C4JE_ePyd39WpZM0g2-78" value="" style="edgeStyle=orthogonalEdgeStyle;fontSize=12;html=1;endArrow=ERoneToMany;rounded=0;exitX=0.994;exitY=0.151;exitDx=0;exitDy=0;exitPerimeter=0;entryX=-0.012;entryY=0.103;entryDx=0;entryDy=0;entryPerimeter=0;" parent="1" source="u2C4JE_ePyd39WpZM0g2-33" target="u2C4JE_ePyd39WpZM0g2-74" edge="1">
          <mxGeometry width="100" height="100" relative="1" as="geometry">
            <mxPoint x="640" y="276" as="sourcePoint" />
            <mxPoint x="740" y="176" as="targetPoint" />
          </mxGeometry>
        </mxCell>
        <mxCell id="u2C4JE_ePyd39WpZM0g2-79" value="" style="edgeStyle=orthogonalEdgeStyle;fontSize=12;html=1;endArrow=ERmandOne;startArrow=ERmandOne;rounded=0;exitX=0.994;exitY=0.138;exitDx=0;exitDy=0;exitPerimeter=0;entryX=0.5;entryY=0;entryDx=0;entryDy=0;" parent="1" source="u2C4JE_ePyd39WpZM0g2-74" target="u2C4JE_ePyd39WpZM0g2-39" edge="1">
          <mxGeometry width="100" height="100" relative="1" as="geometry">
            <mxPoint x="940" y="220" as="sourcePoint" />
            <mxPoint x="1040" y="120" as="targetPoint" />
          </mxGeometry>
        </mxCell>
        <mxCell id="u2C4JE_ePyd39WpZM0g2-81" value="rating" style="swimlane;fontStyle=0;childLayout=stackLayout;horizontal=1;startSize=26;horizontalStack=0;resizeParent=1;resizeParentMax=0;resizeLast=0;collapsible=1;marginBottom=0;align=center;fontSize=14;" parent="1" vertex="1">
          <mxGeometry x="640" y="420" width="160" height="146" as="geometry" />
        </mxCell>
        <mxCell id="u2C4JE_ePyd39WpZM0g2-82" value="id" style="text;strokeColor=none;fillColor=none;spacingLeft=4;spacingRight=4;overflow=hidden;rotatable=0;points=[[0,0.5],[1,0.5]];portConstraint=eastwest;fontSize=12;whiteSpace=wrap;html=1;" parent="u2C4JE_ePyd39WpZM0g2-81" vertex="1">
          <mxGeometry y="26" width="160" height="30" as="geometry" />
        </mxCell>
        <mxCell id="u2C4JE_ePyd39WpZM0g2-83" value="user_id" style="text;strokeColor=none;fillColor=none;spacingLeft=4;spacingRight=4;overflow=hidden;rotatable=0;points=[[0,0.5],[1,0.5]];portConstraint=eastwest;fontSize=12;whiteSpace=wrap;html=1;" parent="u2C4JE_ePyd39WpZM0g2-81" vertex="1">
          <mxGeometry y="56" width="160" height="30" as="geometry" />
        </mxCell>
        <mxCell id="u2C4JE_ePyd39WpZM0g2-86" value="device_id" style="text;strokeColor=none;fillColor=none;spacingLeft=4;spacingRight=4;overflow=hidden;rotatable=0;points=[[0,0.5],[1,0.5]];portConstraint=eastwest;fontSize=12;whiteSpace=wrap;html=1;" parent="u2C4JE_ePyd39WpZM0g2-81" vertex="1">
          <mxGeometry y="86" width="160" height="30" as="geometry" />
        </mxCell>
        <mxCell id="u2C4JE_ePyd39WpZM0g2-84" value="rate" style="text;strokeColor=none;fillColor=none;spacingLeft=4;spacingRight=4;overflow=hidden;rotatable=0;points=[[0,0.5],[1,0.5]];portConstraint=eastwest;fontSize=12;whiteSpace=wrap;html=1;" parent="u2C4JE_ePyd39WpZM0g2-81" vertex="1">
          <mxGeometry y="116" width="160" height="30" as="geometry" />
        </mxCell>
        <mxCell id="u2C4JE_ePyd39WpZM0g2-89" value="" style="edgeStyle=orthogonalEdgeStyle;fontSize=12;html=1;endArrow=ERoneToMany;rounded=0;entryX=0.5;entryY=0;entryDx=0;entryDy=0;" parent="1" source="u2C4JE_ePyd39WpZM0g2-27" target="u2C4JE_ePyd39WpZM0g2-81" edge="1">
          <mxGeometry width="100" height="100" relative="1" as="geometry">
            <mxPoint x="550" y="400" as="sourcePoint" />
            <mxPoint x="840" y="510" as="targetPoint" />
          </mxGeometry>
        </mxCell>
        <mxCell id="u2C4JE_ePyd39WpZM0g2-90" value="" style="edgeStyle=orthogonalEdgeStyle;fontSize=12;html=1;endArrow=ERoneToMany;rounded=0;entryX=0.75;entryY=0;entryDx=0;entryDy=0;" parent="1" source="u2C4JE_ePyd39WpZM0g2-39" target="u2C4JE_ePyd39WpZM0g2-81" edge="1">
          <mxGeometry width="100" height="100" relative="1" as="geometry">
            <mxPoint x="770" y="570" as="sourcePoint" />
            <mxPoint x="870" y="470" as="targetPoint" />
          </mxGeometry>
        </mxCell>
        <mxCell id="u2C4JE_ePyd39WpZM0g2-91" value="country" style="swimlane;fontStyle=0;childLayout=stackLayout;horizontal=1;startSize=26;horizontalStack=0;resizeParent=1;resizeParentMax=0;resizeLast=0;collapsible=1;marginBottom=0;align=center;fontSize=14;" parent="1" vertex="1">
          <mxGeometry x="980" y="740" width="160" height="116" as="geometry" />
        </mxCell>
        <mxCell id="u2C4JE_ePyd39WpZM0g2-92" value="id" style="text;strokeColor=none;fillColor=none;spacingLeft=4;spacingRight=4;overflow=hidden;rotatable=0;points=[[0,0.5],[1,0.5]];portConstraint=eastwest;fontSize=12;whiteSpace=wrap;html=1;" parent="u2C4JE_ePyd39WpZM0g2-91" vertex="1">
          <mxGeometry y="26" width="160" height="30" as="geometry" />
        </mxCell>
        <mxCell id="u2C4JE_ePyd39WpZM0g2-93" value="name" style="text;strokeColor=none;fillColor=none;spacingLeft=4;spacingRight=4;overflow=hidden;rotatable=0;points=[[0,0.5],[1,0.5]];portConstraint=eastwest;fontSize=12;whiteSpace=wrap;html=1;" parent="u2C4JE_ePyd39WpZM0g2-91" vertex="1">
          <mxGeometry y="56" width="160" height="30" as="geometry" />
        </mxCell>
        <mxCell id="u2C4JE_ePyd39WpZM0g2-94" value="img" style="text;strokeColor=none;fillColor=none;spacingLeft=4;spacingRight=4;overflow=hidden;rotatable=0;points=[[0,0.5],[1,0.5]];portConstraint=eastwest;fontSize=12;whiteSpace=wrap;html=1;" parent="u2C4JE_ePyd39WpZM0g2-91" vertex="1">
          <mxGeometry y="86" width="160" height="30" as="geometry" />
        </mxCell>
        <mxCell id="u2C4JE_ePyd39WpZM0g2-97" value="" style="fontSize=12;html=1;endArrow=ERoneToMany;rounded=0;exitX=1;exitY=0.121;exitDx=0;exitDy=0;exitPerimeter=0;entryX=0.269;entryY=1;entryDx=0;entryDy=0;entryPerimeter=0;" parent="1" source="u2C4JE_ePyd39WpZM0g2-91" target="u2C4JE_ePyd39WpZM0g2-54" edge="1">
          <mxGeometry width="100" height="100" relative="1" as="geometry">
            <mxPoint x="1170" y="880" as="sourcePoint" />
            <mxPoint x="1200" y="710" as="targetPoint" />
            <Array as="points">
              <mxPoint x="1193" y="754" />
            </Array>
          </mxGeometry>
        </mxCell>
      </root>
    </mxGraphModel>
  </diagram>
</mxfile>
